<?xml version="1.0" standalone="no"?><!DOCTYPE svg PUBLIC "-//W3C//DTD SVG 1.1//EN" "http://www.w3.org/Graphics/SVG/1.1/DTD/svg11.dtd"><svg t="1701070825541" class="icon" viewBox="0 0 1024 1024" version="1.1" xmlns="http://www.w3.org/2000/svg" p-id="5182" xmlns:xlink="http://www.w3.org/1999/xlink" width="200" height="200"><path d="M200.155 0H819.09c133.45 0 200.156 67.035 200.156 201.143v621.714c0 134.108-66.707 201.143-200.156 201.143H200.155C66.706 1024 0 956.965 0 822.857V201.143C0 67.035 66.706 0 200.155 0z" fill="#F4518C" p-id="5183"></path><path d="M320.585 135.973c12.654-6.4 25.308-4.316 33.756 6.29l103.497 104.046h101.449l103.387-104.046c10.57-10.606 25.417-10.606 35.987 0a24.576 24.576 0 0 1 0 36.206l-61.294 61.55H772.57A137.765 137.765 0 0 1 909.824 373.65v337.481c0 74.314-61.257 135.863-135.168 135.863h-16.823c-2.194 23.333-19.017 40.375-42.24 42.46-25.417 2.194-46.555-16.896-48.64-42.423H354.377c0 23.296-21.102 44.617-44.324 44.617a44.8 44.8 0 0 1-44.325-44.617h-21.102c-74.057 0-135.204-61.586-135.204-133.669v-337.48c0-74.277 61.147-135.864 135.204-135.864h135.059l-63.342-63.67a24.576 24.576 0 0 1 0-36.17c2.194-2.084 2.194-4.205 4.279-4.205z m445.586 182.491H250.88a51.566 51.566 0 0 0-50.725 50.98l2.195 343.918c2.084 27.539 23.223 50.835 50.578 50.835h515.474c27.356 0 48.494-21.212 50.579-50.835l-2.085-343.917c-2.085-27.648-23.223-50.944-50.725-50.944zM508.562 602.917c18.908 21.211 18.908 44.544 46.446 44.544 19.017 0 31.67-23.296 31.67-23.296 2.085-4.206 8.449-8.522 12.618-8.522 8.485-2.12 14.885 4.316 16.97 12.69v4.316c0 2.121 0 6.437-2.085 8.521-10.57 23.333-33.792 38.144-61.294 40.375-16.933 0-33.756-8.521-44.325-21.358-12.617 12.8-27.501 21.358-44.434 21.358a77.349 77.349 0 0 1-61.147-40.375c0-2.194-2.195-4.315-2.195-8.52 0-8.485 6.364-14.922 14.848-17.007h2.085c6.363 0 10.569 2.195 12.654 8.522 0 0 16.932 23.296 31.67 23.296 29.587 0 29.587-25.418 46.52-44.544z m-88.759-167.68l12.654 63.634-168.96 31.854-12.654-63.635 168.96-31.853z m175.324 0l168.96 31.817-12.654 63.67-168.96-31.817 12.654-63.67z" fill="#F66D9E" p-id="5184"></path><path d="M756.005 603.063c-5.925-5.925-13.788-9.874-19.676-13.824a235.081 235.081 0 0 0-63.086-21.833c-21.76-3.95-45.202-7.9-68.9-5.925-3.913 0-5.888 0-9.801 1.975-9.875-83.054-13.788-164.279-9.875-247.442-25.6 8.045-47.25 19.895-70.948 27.794 23.698 120.686 37.449 241.481 47.287 364.142h7.863c17.81 0 33.499 0 51.2-3.95 21.723-1.975 43.337-7.9 65.097-13.97 21.577-7.9 41.216-15.763 57.051-31.561 9.874-7.9 17.7-15.8 19.676-27.795 5.851-9.874 3.913-19.748-5.888-27.611z m-120.101 67.255c-3.913-23.699-5.888-45.568-9.838-67.292 23.589 5.961 45.203 15.836 66.926 23.699-17.81 15.945-37.45 29.769-57.088 43.593z m-322.926-69.23a138.277 138.277 0 0 0-21.723-13.824c-19.639-10.02-41.399-15.945-63.013-19.858-21.577-3.95-43.337-5.925-64.95-3.95-3.914 0-5.852 0-9.802 1.975-9.947-83.054-15.835-166.254-11.922-249.417-23.589 6.07-47.287 19.895-68.864 27.794 23.698 120.686 37.45 241.481 47.25 364.142h7.863a392.063 392.063 0 0 0 96.512-11.85 206.263 206.263 0 0 0 72.777-33.682c9.984-7.9 19.785-17.773 23.735-29.769 5.888-11.812 1.975-21.687-7.863-31.561z m-120.21 69.23c-3.913-23.699-5.888-45.568-9.801-67.292 7.826 0 59.026 19.749 64.95 23.699-15.725 15.945-35.364 29.769-55.149 43.593z m242.25-75.155c-1.94-17.92-1.94-33.682-3.914-51.456a645.083 645.083 0 0 1-3.95-61.33c-1.938-17.92-1.938-37.668-3.913-55.406-1.975-19.894-1.975-39.606-3.913-59.501 0-5.925 0-5.925-5.925-5.925h-2.084c-7.863 0-15.726 0-21.577 1.975-5.925 0-11.813 1.975-17.7 1.975 17.663 98.962 27.5 199.936 37.302 300.873 11.922 0 23.735 1.975 35.474 1.975v-7.9c-7.826-23.844-9.8-43.556-9.8-65.28z m443.025 15.8c-1.974-19.75-3.95-37.67-3.95-57.418-1.938-19.748-3.912-41.582-5.85-61.294-2.012-19.748-2.012-37.668-3.95-57.417-1.975-23.771-3.95-45.495-3.95-69.34 0-5.924 0-5.924-5.852-5.924h-17.846c-7.863 0-15.726 1.975-25.527 3.95 17.664 98.962 27.611 199.936 37.449 300.873 11.776 0 23.588 1.975 35.364 1.975v-1.975l-5.888-53.43z m-61.037-41.619c-1.975-15.762-3.913-33.536-7.863-49.481 0-3.95-1.938-3.95-3.913-3.95h-19.64c-8.008 1.975-15.835 1.975-25.672 3.95 9.837 53.43 21.577 106.862 31.56 160.329 11.777-1.975 23.553-1.975 35.365-3.95-1.974-13.824-1.974-25.673-3.95-37.522a9653.76 9653.76 0 0 1-5.85-69.376z m-442.99 0a3333.12 3333.12 0 0 1-5.925-49.481c0-3.95-1.938-3.95-5.851-3.95-9.984 0-19.785 1.975-27.648 1.975-5.888 0-9.838 1.975-15.726 3.95 9.838 53.43 21.614 106.861 31.452 160.292 11.885-1.938 23.698-1.938 35.474-3.913v-1.975c-1.975-13.824-1.975-29.623-3.913-43.593-3.95-21.687-5.925-43.41-7.863-63.268z m125.952-41.582c0-5.924 0-5.924-5.851-5.924-13.788-1.975-27.539 0-43.374 0 5.888 55.405 9.838 108.836 15.835 162.267h35.365v-5.888c0-49.518 0-98.999-1.975-150.455z m445.074 96.988c0-31.561-2.048-63.269-2.048-96.988 0-5.924 0-5.924-5.888-5.924-13.75-1.975-29.476 0-43.227 0 5.888 55.405 9.801 108.836 15.726 162.267h35.474v-3.876a260.937 260.937 0 0 0 0-55.443zM334.63 456.558c1.974 11.849 3.913 25.82 3.913 37.668l1.975 1.975c5.888 0 13.75 0 19.748-1.975 0-7.9-2.048-13.824-2.048-19.895-1.975-13.824-1.975-25.636-3.95-39.497l-1.974-1.938a39.973 39.973 0 0 0-21.578 0v3.95c3.914 7.9 3.914 13.824 3.914 19.748zM785.627 496.2c5.852 0 13.751 0 19.64-1.975 0-7.9-1.976-13.824-1.976-21.87-1.974-11.849-1.974-25.636-3.913-37.485a1.975 1.975 0 0 0-1.975-1.975 40.594 40.594 0 0 0-21.723 0v1.975c1.938 19.748 3.913 39.497 7.863 59.355 0 1.975 2.084 1.975 2.084 1.975z m-307.2 1.975c0 1.975 0 1.975 1.939 1.975h19.639v-55.442c0-3.95 0-3.95-3.914-5.925-5.888 0-11.776 0-17.7-1.975v61.33z m444.965 3.95h19.639V442.77l-1.975-1.975c-7.863 0-13.75-1.974-21.577-1.974v1.974c0 19.749 0 39.607 1.938 59.356a1.975 1.975 0 0 0 1.975 1.975z m-592.786-3.95c1.975 0 1.975-1.975 1.975-3.95 0-5.924 0-11.849-1.975-15.799-1.939-11.995-3.913-25.782-5.852-37.668 0-1.938 0-3.913-3.95-1.938-5.887 0-11.775 1.974-17.81 1.974 4.023 19.749 7.973 41.582 11.923 61.33 5.851-1.974 9.8-3.949 15.725-3.949z m441.051 0a4.17 4.17 0 0 0 3.95-3.95c-1.975-11.849-1.975-21.87-3.95-33.719 0-5.924-1.938-13.787-3.913-19.748 0-1.938 0-3.913-1.975-3.913-5.888 0-11.776 1.975-19.639 1.975 3.913 19.748 7.863 41.581 11.776 61.33 3.95 0 9.838 0 13.751-1.975z m139.85 3.95l1.974-1.975v-55.442c-1.975-1.975-1.975-3.95-3.913-3.95-5.925 0-13.75 0-19.749 1.975 2.048 19.748 2.048 41.581 4.023 61.33 5.888-1.975 11.776-1.975 17.664-1.975z m-442.99 0l1.974-1.975v-55.442l-1.974-1.975c-6.035 0-13.898 0-19.749 1.975 1.938 19.748 1.938 41.581 3.913 61.33 5.852-3.95 9.801-3.95 15.836-3.95z" fill="#FFFFFF" p-id="5185"></path></svg>